PathFileType	4	(X/Y/Z)	6_coords_data.trc
DataRate	CameraRate	NumFrames	NumMarkers	Units	OrigDataRate	OrigDataStartFrame	OrigNumFrames
30.0	30.0	7	21	m	30.0	38	66
Frame#	Time	THUMB_TIP	THUMB_IP	THUMB_MCP	THUMB_CMC	INDEX_TIP	INDEX_DIP	INDEX_PIP	INDEX_MCP	MIDDLE_TIP	MIDDLE_DIP	MIDDLE_PIP	MIDDLE_MCP	RING_TIP	RING_DIP	RING_PIP	RING_MCP	PINKY_TIP	PINKY_DIP	PINKY_PIP	PINKY_MCP	WRIST
X1	Y1	Z1	X2	Y2	Z2	X3	Y3	Z3	X4	Y4	Z4	X5	Y5	Z5	X6	Y6	Z6	X7	Y7	Z7	X8	Y8	Z8	X9	Y9	Z9	X10	Y10	Z10	X11	Y11	Z11	X12	Y12	Z12	X13	Y13	Z13	X14	Y14	Z14	X15	Y15	Z15	X16	Y16	Z16	X17	Y17	Z17	X18	Y18	Z18	X19	Y19	Z19	X20	Y20	Z20	X21	Y21	Z21
36	1.233333333333328	0.5414876762230112	-0.00786555409209222	-0.1267916679820133	0.5185144834098155	-0.007388011817997642	-0.12672559723058996	0.48870372268116113	-0.009479958225932061	-0.11802144276244944	0.47711442366971124	-0.020446845161113947	-0.07636444407826501	0.5246660617929708	-0.0015197853877535472	-0.11931071046633099	0.536158001670527	0.0117219599238636	-0.12384849615462643	0.5348675385962369	0.03657712595392104	-0.12030374515178072	0.4985225348246979	0.03794668007450208	-0.0981497135467293	0.5272955493534403	-0.010428650166591447	-0.10890277781975034	0.5406100760131457	0.0018471674796858295	-0.10873640191001911	0.5464635577880734	0.029374137867703376	-0.10115931788199073	0.5099272915492562	0.03823510939832497	-0.07701946796821155	0.5281543200305341	-0.012940957413509646	-0.09289295419894816	0.54308176661222	-0.002843545307321449	-0.09243077749170207	0.5529029869646993	0.018589063017443008	-0.08440787837820912	0.5223553182527844	0.029299552930266204	-0.06018297020305987	0.5327561578450796	-0.019084668468799637	-0.08001858679864139	0.5486276358618142	-0.012694073420408292	-0.07951214776796939	0.556089208728855	0.003330569925151128	-0.06818308094861239	0.5276382755556719	0.011113245412708084	-0.0474259661483699	0.462283081001861	-0.023011742144276925	-0.05198982011943099
37	1.2666666666666608	0.540206177457369	-0.00790998055921055	-0.1335689762193844	0.517669197515557	-0.008073426357416369	-0.1290903803933012	0.48859221548043674	-0.009914468581634917	-0.1181377697794821	0.4771935910608861	-0.020445049874172172	-0.0763159068489132	0.5345491748371993	-0.000410753360870153	-0.12346828290997738	0.5424235737475094	0.01574002926888296	-0.12573677629717842	0.5365196354158261	0.03947303207897912	-0.11991458403037311	0.49984131729679215	0.036932296569953005	-0.09842314999185153	0.5376338182744977	-0.008461168878318381	-0.11204803012085453	0.5487181041493185	0.0057588245333523025	-0.11033619075418157	0.5489289009597151	0.0330708302177839	-0.10016665486514988	0.510961350238099	0.03741597769769045	-0.07702075443808992	0.5385127425362155	-0.012025099742840828	-0.09561146854059605	0.5515931644703151	0.00020264415490467425	-0.0935174672996511	0.5559443706138053	0.02217147749762227	-0.08262630824026933	0.5230534429716412	0.02851799120409515	-0.059984985915557815	0.5414949917750504	-0.018905126578048104	-0.0818669877625575	0.5556514048804462	-0.010098264423050729	-0.07798946961659693	0.5587260465755813	0.005984583625917805	-0.06484790973657026	0.5278361727368747	0.010644091014250123	-0.04682048240689125	0.4622830810018609	-0.023011742144276925	-0.05198982011943098
38	1.299999999999994	0.5379904736095612	-0.0078744993490929	-0.13988039112206435	0.5166991357362014	-0.00870727306107777	-0.1312789133707088	0.48848773293417946	-0.010383616647376859	-0.11823565365073291	0.477301004142914	-0.02050622427712767	-0.07625613586259265	0.5451416890685322	0.002722700615394147	-0.12783940236091085	0.5482943455228858	0.020552166974253216	-0.12742601798876	0.5378903846747328	0.04202633985005766	-0.11951227481816369	0.5012223214086653	0.03576278563509161	-0.09877927892003421	0.5489441893628898	-0.004898395681975143	-0.11497487132998549	0.5569209569692357	0.010972762989459595	-0.11144252069896228	0.5510418462033713	0.03665815820142804	-0.09898836157810276	0.5120703929527506	0.03645506992988201	-0.07714042099578142	0.5499607566377852	-0.00962624401522727	-0.0978828298674196	0.5603150692595199	0.004531001427804937	-0.09371622314286213	0.5585669431864766	0.02558963766231681	-0.08053829181145604	0.5238344452247488	0.027589932312210852	-0.05993797043890987	0.5513313880322473	-0.01782032359428387	-0.08276967546359774	0.5624659561103776	-0.007009831899090435	-0.07554785692380926	0.5609287930651149	0.008346236025944087	-0.061312677730908205	0.5281333738928277	0.009988881987403775	-0.04639136255565358	0.4622830810018609	-0.023011742144276925	-0.051989820119430985
39	1.3333333333333275	0.5352713885447562	-0.007733042315477334	-0.14521099241789615	0.5157776192919514	-0.009230759846186043	-0.13313830412917554	0.4884750322857573	-0.010826968741269205	-0.11827758880546209	0.4774455526348994	-0.02061360770750198	-0.07617696795046838	0.5551863706588741	0.00801823251547551	-0.13172715075955252	0.5532787069454906	0.025767275864955308	-0.1286722728021004	0.5389871697076005	0.0441060767437792	-0.11910931412265123	0.5026017743974664	0.03450756885645634	-0.0991692100992947	0.5604751545673905	0.0003695819035544057	-0.11726429542690192	0.5643758966997116	0.01717238400278731	-0.11174613881158658	0.5527462188201796	0.039894413286910235	-0.09767952842991366	0.5132232975522896	0.035384840371258997	-0.07733867378782444	0.5621416820839389	-0.005725186785087599	-0.09951657265907185	0.5683311452700722	0.009831216174159718	-0.09283159902883029	0.5606932782783521	0.028572783886007258	-0.07831965200167273	0.5246858511045488	0.02651888869040009	-0.060044873293061324	0.5614035258320402	-0.015727386585790093	-0.08234974343766634	0.5684975481329688	-0.0037696562930645827	-0.0723653789691407	0.5626248681621657	0.010206705611792266	-0.05784005773809745	0.5285211949863334	0.009159967007614234	-0.04614701428437889	0.4622830810018609	-0.023011742144276925	-0.05198982011943098
40	1.3666666666666607	0.5324441923128191	-0.007397952318639489	-0.14938402031693954	0.514996589240491	-0.00955701932390618	-0.13458808923108853	0.4885500191595644	-0.011195006023119958	-0.11825664929065938	0.47763722446047563	-0.02072309309951237	-0.07606640790097041	0.5635489607045454	0.014887730537393451	-0.13461538895288563	0.5571809735121986	0.031033825380287983	-0.12944312054894885	0.5398048200351427	0.0457219476600399	-0.1187502169565259	0.5038877578923694	0.03325354589128093	-0.09956325006842788	0.5713311830627187	0.0072761078675555035	-0.11858783117238268	0.5704927077541847	0.023812697642915492	-0.11125038217709583	0.5540096188630405	0.04266138360542837	-0.09633581318925002	0.514324168714377	0.034291360655883896	-0.07759666477417913	0.5744059128153013	5.518306997465139e-05	-0.10017474772433432	0.5749352835223739	0.015556792684654153	-0.0909867193172944	0.5623038557787554	0.031049277993353552	-0.07613377647361923	0.5255344444895059	0.02538722445101471	-0.06030114001831893	0.5707977567535409	-0.012838474074954087	-0.08057818039452574	0.5734582816801806	-0.0006872052682714846	-0.06881942733552866	0.5638406147074043	0.011495656460554504	-0.05468116785647421	0.5289586325948434	0.008235915748986189	-0.046107670005985764	0.4622830810018608	-0.023011742144276925	-0.051989820119430985
41	1.3999999999999937	0.5298624046310259	-0.006814836814681535	-0.1524268755988588	0.514452414145931	-0.009651205348602865	-0.13561951986426837	0.48874414798707166	-0.011513022511021376	-0.11817134838531476	0.4778598627340849	-0.02087825120893083	-0.07593730020179967	0.569832176228855	0.022171347664440177	-0.1365012460250049	0.5599936819593331	0.035847172626380375	-0.12985475506217647	0.540407335119159	0.04680231720029604	-0.11852472161910996	0.5050355384618793	0.032042728495094264	-0.0999605993266517	0.5807491329286597	0.015399666614278718	-0.11881995613665639	0.5751240251697226	0.030286836619088153	-0.11017528541139163	0.5548766470857788	0.044874852987494496	-0.09512061805668269	0.5153251202183589	0.03321977394374731	-0.07791643903123177	0.5856626765998252	0.007817874123598578	-0.09933845769116657	0.5799948873521378	0.02109692542564301	-0.08854295114624373	0.5634634785144991	0.03291244800902193	-0.07414552335776341	0.5263353957285745	0.024253566431199025	-0.06068260864872754	0.5788887836452944	-0.009511881944908929	-0.07777747414019717	0.5773212570574358	0.0020153355700092135	-0.06522095723620981	0.564665851817352	0.012275998881954853	-0.05197816577790498	0.5294083058950603	0.007284206295349538	-0.04624484969471161	0.4622830810018609	-0.023011742144276925	-0.051989820119430985
42	1.4333333333333271	0.5276665879913525	-0.0060042798749445625	-0.15446580077349914	0.5141329480542078	-0.009507267912101658	-0.13622930810458778	0.4889711530441535	-0.011732906474321125	-0.11804275799571975	0.47811320345508157	-0.021006729601418805	-0.07578176965743691	0.5741649666819527	0.0290308198214575	-0.13743784223949282	0.5618764490804157	0.040030793799357256	-0.12995500135903518	0.5408288175680205	0.04747367821503401	-0.11839600000540161	0.5059765598226523	0.030999598476729617	-0.10029735583445837	0.5878971773519958	0.023828068366074873	-0.11794317674315656	0.5783172499647785	0.03611536154679407	-0.10871022393559301	0.5554087481721411	0.04660357393993941	-0.09406073601235793	0.5161673230453643	0.03226721394298582	-0.07822636652515329	0.5933685754566398	0.015587996292821038	-0.09664366977834538	0.5835693879136661	0.02611757709409923	-0.08577611017892356	0.5642260218605446	0.03429341267847119	-0.0723906747645539	0.5270137497847205	0.02324327289156536	-0.06108306442263414	0.585356767772193	-0.006138811636502872	-0.074383138454977	0.5801561456057555	0.004263202295479496	-0.0618232166701569	0.5651684610913369	0.012709651729028937	-0.04978831642699954	0.5298054548300654	0.006433290673078185	-0.04647945996885164	0.4622830810018609	-0.023011742144276925	-0.051989820119430985
